# xmcd
#
# Track frame offsets:
#	182
#	19912
#	37460
#	65405
#	77817
#	98872
#	127932
#	145762
#	161030
#	176407
#	192472
#	212150
#
# Disc length: 3041 seconds
# Revision: 1
# Processed by: cddbd v1.5.2PL0 Copyright (c) Steve Scherf et al.
# Submitted via: dBpowerAMP V12.0
#
DISCID=ad0bdf0c
DTITLE=Oscar Benton and Blues Band - Blues Party
DYEAR=1989
DGENRE=Blues
TTITLE0=Where Will I Go?
TTITLE1=Bensonhurst Blues
TTITLE2=Helpless
TTITLE3=Little Girl
TTITLE4=Are You Ready?
TTITLE5=Siant Louis Blues
TTITLE6=Busted
TTITLE7=I Can't Leave You
TTITLE8=Chanson de Blues
TTITLE9=The Day I Got Rid of the Blues
TTITLE10=I Feel So Good
TTITLE11=Dedicated to Al Am
EXTD=
EXTT0=
EXTT1=
EXTT2=
EXTT3=
EXTT4=
EXTT5=
EXTT6=
EXTT7=
EXTT8=
EXTT9=
EXTT10=
EXTT11=
PLAYORDER=
